<?xml version="1.0" encoding="UTF-8"?>
<svg width="300px" height="231px" viewBox="0 0 300 231" version="1.1" xmlns="http://www.w3.org/2000/svg" xmlns:xlink="http://www.w3.org/1999/xlink">
    <title>Hostinger_Vertical_Purple</title>
    <g id="Page-2" stroke="none" stroke-width="1" fill="none" fill-rule="evenodd">
        <g id="Hostinger_Vertical_Purple" fill="#673DE6" fill-rule="nonzero">
            <path d="M84.0013066,72.5711052 L84.0013066,0.00259860011 L120.72624,19.5323777 L120.72624,52.2279643 L169.342647,52.2513517 L206.663395,72.5711052 L84.0013066,72.5711052 Z M179.284655,46.2446875 L179.284655,0 L217,19.0438409 L217,68.0950165 L179.284655,46.2446875 Z M179.284655,134.941405 L179.284655,102.527767 L130.293251,102.493985 C130.338982,102.709669 92.3531683,81.849407 92.3531683,81.849407 L217,82.4327927 L217,155 L179.284655,134.941405 Z M84,134.941405 L84.0013066,87.5195524 L120.72624,108.85276 L120.72624,153.983948 L84,134.941405 Z" id="Fill-15"></path>
            <g id="Group" transform="translate(0.000000, 196.000000)">
                <polygon id="Fill-1" points="20.2104996 1.04748966 27.7534361 1.04748966 27.7534361 34.4648923 20.2104996 34.4648923 20.2104996 20.2878328 7.54293648 20.2878328 7.54293648 34.4648923 0 34.4648923 0 1.04748966 7.54293648 1.04748966 7.54293648 13.8253863 20.2104996 13.8253863"></polygon>
                <path d="M45.507905,17.5202605 C45.507905,19.1645865 45.7075053,20.64854 46.1080502,21.9714443 C46.508595,23.2950253 47.0858903,24.4318434 47.839264,25.3832518 C48.5906215,26.3360136 49.5126811,27.0688552 50.6027544,27.5844833 C51.6914836,28.1021415 52.940834,28.3606323 54.3514775,28.3606323 C55.7285184,28.3606323 56.9704761,28.1021415 58.0766788,27.5844833 C59.1808653,27.0688552 60.1109894,26.3360136 60.863019,25.3832518 C61.6157207,24.4318434 62.1936881,23.2950253 62.5942329,21.9714443 C62.9947777,20.64854 63.1950501,19.1645865 63.1950501,17.5202605 C63.1950501,15.8739044 62.9947777,14.3818307 62.5942329,13.0426861 C62.1936881,11.7042183 61.6157207,10.5599568 60.863019,9.60719497 C60.1109894,8.65578656 59.1808653,7.92091494 58.0766788,7.40596341 C56.9704761,6.88965859 55.7285184,6.63184446 54.3514775,6.63184446 C52.940834,6.63184446 51.6914836,6.89777868 50.6027544,7.42964712 C49.5126811,7.96219223 48.5906215,8.70450732 47.839264,9.65659246 C47.0858903,10.6080009 46.508595,11.752939 46.1080502,13.0914069 C45.7075053,14.4312281 45.507905,15.9070616 45.507905,17.5202605 Z M70.9324201,17.5202605 C70.9324201,20.390726 70.5070092,22.916086 69.6595478,25.0922805 C68.8093981,27.270505 67.6474149,29.093474 66.1742702,30.5605105 C64.7004535,32.0295771 62.9457177,33.1339147 60.911407,33.8755531 C58.8770964,34.6185449 56.6895571,34.9893641 54.3514775,34.9893641 C52.0758991,34.9893641 49.9300273,34.6185449 47.9111739,33.8755531 C45.8923205,33.1339147 44.1295201,32.0295771 42.6241167,30.5605105 C41.1173693,29.093474 39.9332082,27.270505 39.0676013,25.0922805 C38.2026664,22.916086 37.7691909,20.390726 37.7691909,17.5202605 C37.7691909,14.6484416 38.2181237,12.1237582 39.1153172,9.94688706 C40.0118387,7.76866253 41.2222098,5.93757345 42.7444146,4.45361995 C44.2652751,2.96966642 46.0280756,1.85720878 48.0314718,1.11489368 C50.0328517,0.371901897 52.1404164,0.00040600615 54.3514775,0.00040600615 C56.6257119,0.00040600615 58.7722558,0.371901897 60.7917812,1.11489368 C62.8099626,1.85720878 64.5720909,2.96966642 66.0781664,4.45361995 C67.5835697,5.93757345 68.7697469,7.76866253 69.6346817,9.94688706 C70.5002887,12.1237582 70.9324201,14.6484416 70.9324201,17.5202605 Z" id="Fill-2"></path>
                <path d="M89.7861184,28.5532824 C90.843261,28.5532824 91.7162605,28.4653143 92.405117,28.2866715 C93.0939734,28.1100587 93.6470747,27.8684849 94.0630768,27.5599199 C94.4790787,27.2547385 94.7680628,26.8920393 94.9286838,26.4724994 C95.0893048,26.0536361 95.1692795,25.5853753 95.1692795,25.0690705 C95.1692795,23.9728531 94.6558296,23.0600153 93.6309454,22.3352938 C92.6053893,21.6085423 90.843261,20.8269799 88.3445603,19.9865466 C87.254487,19.6008405 86.1650857,19.1562634 85.0756845,18.6568755 C83.9862832,18.1574876 83.0091151,17.5281776 82.1441802,16.7696222 C81.2799175,16.0117436 80.5742596,15.0921389 80.029895,14.0101318 C79.4848584,12.9301547 79.2126761,11.6160472 79.2126761,10.0671326 C79.2126761,8.51821804 79.5009877,7.12290929 80.077611,5.88120622 C80.6549062,4.63882655 81.4714532,3.58320981 82.5292678,2.71097265 C83.5864104,1.83941216 84.8673474,1.17153157 86.3734228,0.702594139 C87.8794982,0.235686737 89.5771092,0.000203003358 91.4682722,0.000203003358 C93.7109199,0.000203003358 95.6497991,0.243806865 97.2842369,0.726954525 C98.9173306,1.21077886 100.263457,1.74400065 101.320599,2.32458985 L99.158598,8.27664421 C98.2284739,7.79281991 97.1948532,7.3651598 96.0584084,6.99366386 C94.9206189,6.62352138 93.5509708,6.43675837 91.9494636,6.43675837 C90.1544046,6.43675837 88.8647309,6.68848237 88.0797706,7.18787028 C87.2948102,7.68793487 86.9016581,8.4546104 86.9016581,9.48586674 C86.9016581,10.0996131 87.046822,10.6165946 87.3351335,11.0347813 C87.6227732,11.4543213 88.0320547,11.8332606 88.56029,12.172276 C89.0891973,12.5106147 89.6980792,12.8178262 90.3876077,13.0912039 C91.07512,13.3659349 91.8365584,13.6474327 92.6705787,13.9377273 C94.3997764,14.5839542 95.9058517,15.2207076 97.188133,15.8500177 C98.4690696,16.4793276 99.5349493,17.2135226 100.384427,18.0519259 C101.23256,18.8903292 101.865636,19.8748948 102.282982,21.0042694 C102.698312,22.1343206 102.907321,23.5045923 102.907321,25.1164379 C102.907321,28.2460708 101.817248,30.6739893 99.6384459,32.3995167 C97.4596431,34.1263974 94.17531,34.9898378 89.7861184,34.9898378 C88.3123016,34.9898378 86.9823047,34.9005163 85.7967996,34.7232269 C84.6112944,34.5445841 83.5622165,34.3273706 82.6488936,34.0695565 C81.7362429,33.8117424 80.9506105,33.5376881 80.2933406,33.2473935 C79.6367428,32.9564222 79.0843136,32.6830445 78.6353808,32.4238771 L80.7510101,26.4237786 C81.7429634,26.9732406 82.9687918,27.4645085 84.4278234,27.8989353 C85.8848387,28.3353922 87.6718331,28.5532824 89.7861184,28.5532824" id="Fill-4"></path>
                <polygon id="Fill-6" points="135.939365 0.776148975 135.939365 7.21270434 125.894158 7.21270434 125.894158 34.311604 118.396712 34.311604 118.396712 7.21270434 108.350833 7.21270434 108.350833 0.776148975"></polygon>
                <polygon id="Fill-8" points="144.266867 34.312416 151.764985 34.312416 151.764985 0.776284309 144.266867 0.776284309"></polygon>
                <path d="M185.326877,34.3116717 C183.180334,30.4728808 180.857711,26.6828107 178.357666,22.9394314 C175.857621,19.1967287 173.1983,15.6644727 170.379701,12.34131 L170.379701,34.3116717 L162.977686,34.3116717 L162.977686,0.776216642 L169.08129,0.776216642 C170.137761,1.83995351 171.307809,3.14661755 172.59009,4.69553212 C173.871699,6.24444665 175.176158,7.89824621 176.506827,9.65625409 C177.836152,11.414262 179.158084,13.2372308 180.471952,15.1238074 C181.785147,17.0110607 183.01904,18.8252328 184.172959,20.5676771 L184.172959,0.776216642 L191.622689,0.776216642 L191.622689,34.3116717 L185.326877,34.3116717" id="Fill-10"></path>
                <path d="M219.078625,6.58339438 C215.587971,6.58339438 213.063732,7.55916317 211.509269,9.5107008 C209.955478,11.462915 209.179254,14.1317307 209.179254,17.5205311 C209.179254,19.1641805 209.37079,20.6576075 209.755206,21.9960754 C210.140293,23.3338666 210.716916,24.4869249 211.485075,25.4552502 C212.25525,26.4235756 213.215617,27.1740109 214.369535,27.706556 C215.522782,28.2384244 216.867564,28.5043586 218.405898,28.5043586 C219.238574,28.5043586 219.952297,28.4881183 220.545722,28.4563145 C221.137802,28.4245107 221.658645,28.3602263 222.106905,28.2627848 L222.106905,16.6009265 L229.605024,16.6009265 L229.605024,33.1991464 C228.707158,33.554402 227.266272,33.9326647 225.279005,34.3352877 C223.293082,34.7379108 220.841425,34.940914 217.925379,34.940914 C215.426678,34.940914 213.159164,34.5531778 211.125526,33.7797356 C209.089871,33.0042633 207.351936,31.8762421 205.909706,30.3916119 C204.469492,28.908335 203.355225,27.0846894 202.570265,24.9233818 C201.78396,22.7634276 201.392824,20.2949084 201.392824,17.5205311 C201.392824,14.7129966 201.825627,12.2289139 202.691234,10.0669296 C203.555497,7.90629867 204.739658,6.0738563 206.247078,4.57433919 C207.753153,3.07414541 209.522674,1.93732738 211.557657,1.16320844 C213.591967,0.388412825 215.762705,1.0658141e-13 218.06987,1.0658141e-13 C219.639791,1.0658141e-13 221.057155,0.106238351 222.323307,0.315331666 C223.588787,0.525778334 224.677516,0.767352166 225.590839,1.04208319 C226.504834,1.31546086 227.258207,1.59763533 227.85096,1.88860661 C228.444385,2.17890121 228.867107,2.40558814 229.124504,2.56663736 L226.961831,8.6147799 C225.935603,8.06667122 224.758163,7.5916437 223.42951,7.18766728 C222.098841,6.78436755 220.64989,6.58339438 219.078625,6.58339438" id="Fill-11"></path>
                <polygon id="Fill-12" points="240.096072 34.3116717 240.096072 0.776216642 262.589083 0.776216642 262.589083 7.1153305 247.593518 7.1153305 247.593518 13.6960181 260.906929 13.6960181 260.906929 19.8909997 247.593518 19.8909997 247.593518 27.9725578 263.695285 27.9725578 263.695285 34.3116717"></polygon>
                <path d="M282.932391,6.82490054 C282.387355,6.82490054 281.900115,6.84114083 281.466639,6.87294462 C281.03518,6.90610182 280.625899,6.93858235 280.240811,6.96970953 L280.240811,16.0669604 L282.35644,16.0669604 C285.175039,16.0669604 287.194564,15.7137348 288.411656,15.0032236 C289.630092,14.2947423 290.238302,13.0841665 290.238302,11.373526 C290.238302,9.72784657 289.621355,8.55990138 288.387462,7.86427703 C287.153569,7.17203604 285.33566,6.82490054 282.932391,6.82490054 M282.50026,0.388345157 C287.499005,0.388345157 291.327031,1.28291267 293.986353,3.07407774 C296.645675,4.86456613 297.976344,7.64706357 297.976344,11.4222468 C297.976344,13.7764074 297.440044,15.6893744 296.3661,17.1570877 C295.2935,18.6241243 293.747101,19.7785359 291.728248,20.6162626 C292.401647,21.4560192 293.105961,22.4155477 293.842533,23.4962015 C294.579106,24.577532 295.308958,25.7069066 296.030072,26.8843252 C296.750515,28.0617439 297.448109,29.2872067 298.120835,30.5607136 C298.792891,31.8362504 299.417902,33.0860736 299.993853,34.3115364 L291.612655,34.3115364 C291.001085,33.2146423 290.381449,32.1021847 289.755766,30.9728101 C289.128067,29.8441122 288.486254,28.7465414 287.825624,27.6814512 C287.168354,26.616361 286.514445,25.609465 285.872632,24.6580566 C285.228131,23.7052948 284.584303,22.8425312 283.94249,22.0670589 L280.240811,22.0670589 L280.240811,34.3115364 L272.744037,34.3115364 L272.744037,1.25855229 C274.377803,0.937807201 276.068021,0.710443598 277.81402,0.582551568 C279.560019,0.45262951 281.121875,0.388345157 282.50026,0.388345157" id="Fill-13"></path>
            </g>
        </g>
    </g>
</svg>