<svg xmlns="http://www.w3.org/2000/svg" viewBox="0 0 1000 1000" width="1000" height="1000">
  <!-- Asymmetric crab-claw silhouette — large pincer pointing up-right.
       Background drift element; rendered at ~5% opacity in the host composition. -->
  <path fill="#c92a2a" d="
    M380 760
    C 300 700, 240 600, 240 480
    C 240 360, 320 250, 460 230
    C 540 220, 600 250, 640 300
    L 720 220
    C 760 180, 820 180, 860 220
    C 900 260, 900 320, 860 360
    L 780 440
    C 820 480, 840 540, 820 600
    L 760 540
    C 720 580, 660 580, 620 540
    L 620 600
    C 660 640, 700 700, 700 760
    L 620 760
    C 600 720, 560 700, 520 700
    C 480 700, 440 720, 420 760
    Z
    M 700 280 C 740 240, 780 240, 800 280 C 820 320, 800 360, 760 380 L 700 320 Z
  "/>
</svg>
